<?xml version="1.0" standalone="no"?>
<!DOCTYPE svg PUBLIC "-//W3C//DTD SVG 20010904//EN"
 "http://www.w3.org/TR/2001/REC-SVG-20010904/DTD/svg10.dtd">
<svg version="1.0" xmlns="http://www.w3.org/2000/svg"
 width="1200.000000pt" height="436.000000pt" viewBox="0 0 1200.000000 436.000000"
 preserveAspectRatio="xMidYMid meet">

<g transform="translate(0.000000,436.000000) scale(0.100000,-0.100000)"
fill="#000000" stroke="none">
<path d="M4569 4167 l-636 -191 12 -48 13 -48 -41 -11 c-107 -28 -216 -118
-268 -221 -16 -32 -32 -58 -34 -58 -3 0 -127 84 -276 186 -149 103 -274 183
-278 178 -5 -5 -217 -290 -471 -634 -255 -344 -472 -635 -483 -647 -18 -21
-30 -23 -153 -25 l-134 -3 60 -90 c33 -49 60 -94 60 -100 0 -5 -21 -37 -45
-69 -25 -33 -45 -62 -45 -66 0 -3 81 -62 180 -130 l180 -124 101 -149 101
-149 -160 -236 c-88 -131 -221 -327 -296 -437 l-136 -200 561 -3 560 -2 -5
-53 c-11 -100 -27 -290 -24 -292 2 -2 419 -21 928 -44 509 -22 953 -43 988
-46 l62 -6 0 221 0 220 94 0 94 0 4 -270 c2 -176 8 -274 15 -281 8 -8 20 -6
44 6 49 26 192 73 244 81 l45 6 0 -64 c0 -36 3 -133 7 -216 l6 -152 288 0 287
0 6 47 c3 27 10 118 16 203 16 223 6 204 98 195 42 -3 169 -20 282 -36 113
-17 264 -33 337 -36 l131 -6 94 -183 93 -184 323 0 c177 0 322 2 322 4 0 4
-130 337 -157 402 -3 8 21 16 69 24 40 6 130 25 199 41 l126 30 -33 192 c-19
106 -34 193 -34 195 0 1 38 2 85 2 59 0 87 -4 90 -12 3 -7 37 -202 76 -433 39
-231 72 -421 74 -423 1 -2 414 78 916 177 503 99 933 183 955 187 73 11 73 0
10 248 -31 124 -56 232 -56 240 0 12 16 16 70 18 l69 3 -116 170 -116 170 -97
387 -98 388 116 172 c64 95 160 238 214 318 l99 145 -294 3 -295 2 -47 193
c-26 105 -49 195 -51 198 -2 4 -90 -11 -196 -32 -105 -22 -197 -39 -203 -39
-7 0 -20 30 -29 68 -36 145 -123 257 -246 314 l-66 31 -88 401 c-48 221 -97
440 -108 489 l-20 87 -351 0 -351 0 31 -27 c28 -25 48 -72 157 -383 68 -195
152 -435 187 -534 50 -144 60 -182 50 -195 -32 -44 -71 -140 -81 -201 -9 -52
-9 -87 0 -146 8 -55 9 -79 1 -83 -6 -4 -104 -25 -217 -46 l-206 -39 4 -28 5
-29 -91 3 -91 3 -12 65 c-6 36 -14 81 -17 101 l-6 37 70 13 69 14 -63 127
c-81 162 -170 309 -254 423 l-67 90 4 181 c2 99 -3 287 -10 417 l-12 237
-1041 -1 -1041 -1 -636 -191z m1378 -497 l8 -85 -68 -120 c-91 -161 -264 -509
-335 -675 l-58 -135 -292 -3 -292 -2 0 343 0 344 -97 6 c-54 4 -132 7 -173 7
-41 0 -91 3 -111 6 l-36 6 -6 91 c-3 50 -5 93 -3 94 2 2 246 55 542 118 296
63 560 122 586 131 67 22 130 83 228 221 l85 120 7 -191 c4 -105 11 -229 15
-276z m-1914 -90 c16 -63 30 -116 32 -118 1 -1 53 9 115 23 62 14 115 23 118
20 3 -3 8 -36 10 -72 l5 -66 -149 7 c-82 3 -205 9 -273 13 l-124 6 6 63 c10
103 57 173 149 221 72 38 77 33 111 -97z m-743 20 c135 -6 264 -13 286 -16
l42 -5 -14 -46 c-8 -25 -14 -66 -14 -90 0 -38 -3 -43 -22 -43 -13 0 -110 5
-217 10 -107 6 -196 8 -199 6 -2 -3 -19 -175 -36 -383 l-31 -378 -93 -3 c-70
-2 -92 0 -92 10 0 29 71 905 76 926 5 26 -13 26 314 12z m5495 -440 c23 -16
52 -46 64 -66 25 -41 57 -151 48 -160 -5 -5 -497 -104 -519 -104 -9 0 -21 77
-20 131 0 25 8 64 17 87 14 34 24 44 54 52 34 9 302 87 309 89 2 0 23 -12 47
-29z m-5465 -1030 c7 -12 7 -32 2 -52 -7 -28 -15 -35 -53 -45 -24 -6 -70 -12
-101 -12 -44 -1 -59 -5 -67 -19 -34 -64 -182 -604 -196 -715 l-7 -57 80 0
c105 0 137 -27 95 -79 -16 -19 -35 -23 -138 -32 -66 -5 -158 -14 -205 -19
-116 -13 -136 -13 -154 6 -21 21 -20 57 2 77 18 16 70 31 143 42 l46 6 13 77
c26 164 110 469 173 635 l26 67 -84 0 c-63 0 -87 4 -99 16 -21 21 -20 67 2 93
19 23 44 25 349 29 153 2 163 1 173 -18z m1262 -19 c26 -33 32 -86 18 -149
-16 -72 -102 -240 -151 -295 l-38 -44 53 5 c30 2 63 -1 75 -7 34 -19 61 -83
61 -146 0 -54 1 -56 23 -49 36 11 76 43 92 75 45 86 127 142 210 142 149 0
208 -152 99 -255 -33 -31 -124 -73 -178 -83 -41 -8 -44 -17 -16 -45 33 -33
131 -28 206 10 98 50 110 65 118 150 14 159 79 389 144 513 104 200 282 275
338 142 44 -107 -83 -372 -270 -563 l-91 -93 0 -63 c0 -142 80 -155 212 -35
38 34 40 40 47 109 14 159 72 363 141 500 89 176 236 260 316 181 25 -25 29
-37 29 -83 0 -148 -127 -379 -296 -538 l-69 -65 0 -71 c0 -57 4 -76 19 -93 28
-31 75 -27 131 12 44 29 49 37 64 97 39 156 167 279 293 280 56 0 78 -7 78
-26 0 -9 11 -14 29 -14 53 0 56 -15 32 -168 -26 -169 -27 -192 -3 -192 26 0
77 34 108 74 43 53 77 45 90 -22 5 -27 1 -36 -41 -77 -27 -25 -65 -55 -86 -66
-68 -34 -169 -17 -184 31 -8 25 -17 25 -32 1 -18 -28 -94 -61 -142 -61 -47 0
-93 20 -114 50 -14 20 -15 19 -70 -10 -107 -59 -199 -48 -254 27 l-28 39 -50
-38 c-89 -68 -203 -85 -264 -40 -14 10 -35 35 -47 55 l-20 37 -24 -25 c-14
-14 -54 -40 -89 -58 -59 -29 -74 -32 -157 -32 -86 0 -95 2 -136 30 -48 34 -88
102 -88 151 l0 31 -45 -12 c-41 -10 -48 -16 -69 -61 -60 -129 -207 -181 -334
-118 -29 14 -57 35 -63 45 -10 19 -11 19 -42 -7 -88 -75 -218 -71 -242 7 -6
19 -8 18 -27 -7 -50 -62 -166 -83 -228 -41 l-34 24 -50 -20 c-72 -28 -216 -34
-287 -14 -62 19 -135 67 -150 100 -8 18 6 52 86 208 82 160 100 189 127 200
26 10 35 10 57 -2 20 -12 26 -22 25 -50 0 -18 -4 -41 -8 -50 -4 -10 13 -43 54
-98 64 -89 81 -131 72 -177 -5 -28 -5 -28 19 -13 19 13 25 28 30 77 16 161
163 312 306 312 40 0 55 -4 65 -19 8 -11 27 -21 43 -23 26 -3 30 -8 33 -36 2
-18 -6 -93 -18 -167 -12 -74 -19 -139 -15 -145 13 -20 47 -9 89 30 l43 40 12
114 c32 317 160 603 303 675 56 29 133 24 160 -8z m2903 -44 c108 -50 145
-103 145 -204 0 -72 -25 -127 -74 -171 -40 -35 -70 -40 -104 -16 -30 20 -28
57 4 100 15 20 29 52 31 77 4 36 1 48 -21 74 -72 85 -284 83 -387 -4 -39 -33
-52 -67 -44 -115 9 -53 42 -82 176 -157 283 -158 317 -182 358 -251 22 -39 26
-56 26 -125 0 -94 -20 -140 -84 -198 -84 -76 -189 -110 -341 -111 -148 -1
-253 30 -347 101 -77 59 -111 210 -65 285 27 44 58 60 108 56 l39 -3 -2 -50
c-7 -137 -7 -142 16 -178 15 -24 41 -45 79 -64 51 -25 67 -28 162 -28 123 0
178 17 230 70 29 30 34 43 37 92 7 98 -21 127 -227 238 -268 145 -330 208
-330 336 0 75 18 116 77 169 86 80 189 111 358 107 107 -2 126 -5 180 -30z
m635 8 c89 -46 45 -222 -97 -397 -31 -38 -67 -77 -82 -88 l-26 -20 40 14 c76
25 112 28 130 10 9 -9 15 -26 13 -37 -2 -17 -18 -26 -78 -43 -41 -12 -97 -30
-125 -40 -46 -18 -50 -23 -56 -59 -8 -46 5 -141 22 -161 18 -22 61 -16 110 14
60 39 75 59 83 111 15 100 98 212 184 248 54 23 137 21 170 -4 47 -35 72 -81
72 -134 0 -56 7 -59 64 -26 33 18 42 30 52 70 21 81 60 121 106 109 34 -9 38
-34 18 -122 -10 -47 -17 -86 -15 -88 1 -2 17 22 34 52 18 30 52 77 77 105 40
44 51 51 84 51 67 0 85 -41 55 -125 -21 -58 -19 -75 8 -75 39 1 84 33 119 85
40 60 101 105 159 115 168 32 255 -136 132 -252 -33 -31 -122 -74 -175 -83
-44 -8 -47 -16 -16 -45 49 -45 191 -17 275 54 35 30 69 31 87 4 38 -60 -158
-187 -290 -188 -134 0 -215 60 -230 173 l-6 44 -37 -10 c-47 -13 -106 -2 -133
25 -17 17 -20 29 -15 72 l6 51 -40 -77 c-21 -43 -53 -113 -70 -155 -39 -98
-52 -113 -100 -113 -56 0 -72 36 -67 146 1 46 3 84 3 84 0 0 -22 -8 -49 -19
-41 -15 -52 -25 -65 -58 -30 -75 -60 -111 -113 -137 -89 -44 -186 -31 -240 32
l-25 30 -29 -24 c-37 -30 -125 -64 -166 -64 -18 0 -51 9 -74 20 -50 25 -79 81
-90 178 -6 57 -9 62 -31 62 -15 0 -27 8 -35 25 -13 29 -2 47 41 65 26 11 30
19 45 100 19 103 76 275 113 340 84 145 183 202 273 155z"/>
<path d="M4420 1980 c-53 -56 -131 -249 -155 -380 l-6 -35 20 25 c53 64 156
226 178 281 25 63 28 129 5 137 -7 2 -26 -11 -42 -28z"/>
<path d="M5446 1969 c-22 -26 -51 -82 -75 -143 -39 -101 -78 -243 -69 -252 9
-8 129 169 169 251 29 57 41 96 42 130 3 66 -19 70 -67 14z"/>
<path d="M5835 1983 c-47 -47 -114 -209 -149 -363 l-15 -64 24 29 c50 61 138
200 166 261 34 74 43 156 18 162 -8 1 -28 -10 -44 -25z"/>
<path d="M3835 1536 c-35 -15 -106 -90 -130 -136 -14 -27 -15 -37 -5 -56 8
-13 10 -36 6 -57 -6 -30 -3 -36 13 -42 57 -18 117 59 150 192 31 121 29 127
-34 99z"/>
<path d="M6129 1530 c-74 -39 -138 -139 -139 -217 0 -45 19 -73 50 -73 25 0
77 45 97 84 14 26 62 195 63 219 0 13 -34 7 -71 -13z"/>
<path d="M4357 1525 c-63 -32 -102 -115 -95 -195 6 -63 29 -90 77 -90 43 0 75
20 96 61 15 28 14 32 -5 56 -28 36 -25 70 10 103 34 32 36 42 14 64 -19 20
-60 20 -97 1z"/>
<path d="M4883 1521 c-37 -23 -86 -101 -81 -131 3 -20 5 -19 63 9 76 36 108
69 103 107 -4 37 -39 43 -85 15z"/>
<path d="M3281 1359 c-22 -49 -41 -94 -41 -98 0 -11 63 -41 87 -41 38 0 63 28
63 73 0 40 -38 138 -58 151 -5 3 -28 -35 -51 -85z"/>
<path d="M7990 1928 c-17 -18 -47 -64 -65 -103 -29 -61 -40 -94 -61 -180 -8
-33 113 104 146 166 36 68 51 149 28 149 -9 0 -30 -15 -48 -32z"/>
<path d="M9230 1518 c-36 -25 -84 -106 -78 -133 5 -26 143 47 163 86 32 61
-21 90 -85 47z"/>
<path d="M8244 1494 c-84 -88 -80 -264 6 -264 27 0 68 37 91 81 l20 40 -32 30
c-26 24 -30 34 -24 57 3 15 14 35 22 44 21 24 9 48 -23 48 -18 0 -38 -12 -60
-36z"/>
</g>
</svg>
